<svg width="40" height="40" viewBox="0 0 40 40" fill="none" xmlns="http://www.w3.org/2000/svg">
<rect width="40" height="40" fill="white"/>
<mask id="mask0" mask-type="alpha" maskUnits="userSpaceOnUse" x="0" y="0" width="40" height="40">
<rect width="40" height="40" fill="white"/>
</mask>
<g mask="url(#mask0)">
<path d="M40 40H0V0L40 0V40Z" fill="#306FC5"/>
<path d="M3.50781 16.4541H4.89854L4.20336 14.6725L3.50781 16.4541Z" fill="white"/>
<path d="M10.9043 22.4346V23.2619H13.2433V24.1528H10.9043V25.1075H13.496L14.697 23.771L13.5593 22.4346H10.9043Z" fill="white"/>
<path d="M29.1722 14.6725L28.4136 16.4541H29.8677L29.1722 14.6725Z" fill="white"/>
<path d="M17.6681 25.616V21.9894L16.0244 23.771L17.6681 25.616Z" fill="white"/>
<path d="M20.7652 23.0075C20.7019 22.6257 20.4488 22.4346 20.0694 22.4346H18.7422V23.5798H20.133C20.5122 23.5799 20.7652 23.3891 20.7652 23.0075Z" fill="white"/>
<path d="M25.1898 23.4529C25.3163 23.3891 25.3797 23.198 25.3797 23.0075C25.443 22.7532 25.3163 22.6258 25.1898 22.5621C25.0637 22.4984 24.8738 22.4984 24.6845 22.4984H23.4199V23.5166H24.6844C24.8737 23.5166 25.0636 23.5166 25.1898 23.4529Z" fill="white"/>
<path fill-rule="evenodd" clip-rule="evenodd" d="M34.2923 13.7816V13.0181H34.2925H37.1371V19.2534H34.3558H34.2923H34.1662L33.5971 18.2992V18.6172V19.2534H29.9309L29.5516 18.2356H28.6669L28.2876 19.2534H26.391C25.6323 19.2534 25.0638 19.0628 24.6845 18.8716V19.2534H20.1331V17.8536C20.1331 17.6627 20.1331 17.6627 20.0069 17.6627H19.8801V19.3171H19.8169H12.5473H11.0934V19.2533V18.5536L10.7775 19.317H8.94451L8.62823 18.5536V19.2533V19.3171H4.96223L4.58296 18.2991H3.76123L3.38178 19.2533L3.35887 19.3171H3.31851H0.0945984H0.0678711L0.0945984 19.2533L1.54833 16.0084L2.81278 13.0181H5.53087H5.59414L5.91023 13.7816V13.0181H6.85851H9.13405L9.82924 14.6088L10.5249 13.0181H20.7021C21.2079 13.0181 21.5871 13.1455 21.9031 13.3999V13.0818V13.0181H24.7476V13.3999C25.2531 13.1454 25.8222 13.0181 26.5175 13.0181H30.5631L30.9426 13.7816V13.0181H33.9133L34.2923 13.7816ZM12.2313 18.3629H12.8635V13.909H11.1565L9.89233 16.963L9.87205 17.0289L9.29933 15.7199L8.50178 13.9727H8.4996L8.46978 13.9089H7.17423H6.79505V18.1718L5.02514 13.9089H3.44496L1.57496 18.3629H2.68614L3.12869 17.4085H5.27814L5.7206 18.3629H7.86969V14.8633L9.38669 18.3629H9.93369H10.2718H10.3183L11.7889 15.0075V15.0093L11.8521 14.8633V17.9814V18.3629H12.2313ZM17.2254 14.8633H14.7601V15.6904H17.1621V16.5811H14.7601V17.4722H17.2254V18.4263H13.6855V13.909H17.2254V14.8633ZM21.7398 16.5078C21.7378 16.5064 21.7357 16.5054 21.7341 16.504C21.545 16.3059 21.3341 16.2631 21.3341 16.2631C21.6445 16.1379 22.0763 15.7664 22.091 15.0892C22.0839 14.5976 21.8968 14.2871 21.5871 14.0999C21.2709 13.909 20.8914 13.909 20.3229 13.909H17.9206V18.363H18.995V16.7723H20.1331C20.4311 16.7723 20.6107 16.7733 20.7054 16.835C20.7712 16.8632 20.8317 16.9028 20.8914 16.963C21.0813 17.2174 21.0813 17.5993 21.0813 17.8537V18.363H22.0293V17.4722C22.0293 17.4335 22.0284 17.3977 22.027 17.3626L22.0271 17.3572C22.0271 17.3536 22.0265 17.3506 22.0265 17.3471L22.0255 17.3291C22.0206 16.9806 21.9227 16.743 21.8016 16.5832C21.7841 16.5588 21.7637 16.5333 21.7398 16.5078ZM23.8627 18.3629H22.788V13.9089H23.8627V18.3629ZM36.1891 18.3629H36.1892V18.363H36.1891V18.3629ZM36.1891 18.3629V13.973H35.114V17.0905L33.2811 13.973H31.701V16.4542V16.5813V18.0184V18.2358L29.9308 13.9729H28.9828H28.3503L26.8966 17.4723H26.4541C26.1381 17.4723 25.8855 17.4086 25.6954 17.2174C25.4429 16.963 25.3796 16.6449 25.3796 16.1358C25.3796 15.6904 25.5061 15.3088 25.6954 15.118C25.9488 14.9267 26.1381 14.8633 26.5173 14.8633H27.529V13.909H26.5173C25.8221 13.909 25.253 14.0359 24.9371 14.418C24.4947 14.9268 24.3684 15.5635 24.3684 16.1997C24.3684 17.0267 24.5579 17.5358 24.9371 17.9175C25.3162 18.2993 25.9488 18.4264 26.4541 18.4264H27.6551L28.0344 17.4086H30.2471L30.6263 18.363H31.7011V18.3656H32.769V17.7835L32.7756 17.7901V14.9905L34.7983 18.3629H36.1891Z" fill="white"/>
<path d="M20.8324 15.7639C20.8509 15.7441 20.8676 15.7216 20.8818 15.6958C20.9391 15.6045 21.0047 15.4402 20.9694 15.2159C20.9679 15.1953 20.9642 15.1763 20.9598 15.1579C20.9586 15.1528 20.9588 15.1483 20.9574 15.1432L20.9568 15.1433C20.9254 15.0343 20.8451 14.9673 20.765 14.9267C20.6383 14.8633 20.4486 14.8633 20.2591 14.8633H18.9946V15.8814H20.2591C20.4486 15.8814 20.6384 15.8814 20.765 15.8177C20.784 15.808 20.8009 15.7948 20.8172 15.7799L20.8174 15.7807C20.8174 15.7806 20.8239 15.7738 20.8324 15.7639Z" fill="white"/>
<path fill-rule="evenodd" clip-rule="evenodd" d="M39.6028 23.5167C39.7923 23.8347 39.9186 24.2803 39.9186 24.7256C39.9186 24.7671 39.917 24.8079 39.9146 24.849L39.9183 24.8526C39.917 24.867 39.9152 24.8813 39.9134 24.8957L39.9106 24.9186C39.8561 25.6606 39.4893 26.2827 38.9073 26.6342C38.528 26.8888 37.9586 26.9524 37.3901 26.9524H34.6717V26.8249V26.5704C34.3557 26.8249 33.7872 26.9524 33.2178 26.9524H24.6212V26.8249V25.4889C24.6212 25.298 24.6212 25.298 24.4313 25.298H24.3052V26.8249V26.9524H21.4605V26.8249V25.2344C21.0181 25.4255 20.4489 25.4255 20.0068 25.4255H19.6905V26.2526V26.8888H19.6276H19.5643H19.4191H16.2138H16.1503L15.3581 25.9686L14.4441 26.8888H8.88135V21.1561V20.6534V20.4623H13.875H14.3056H14.5703L15.3921 21.4168L16.2773 20.4623H20.0694C20.4489 20.4623 21.2078 20.5261 21.5238 20.8439V20.6535V20.4624H24.9373C25.2532 20.4624 25.9491 20.5261 26.3281 20.844V20.6536V20.4625H31.5113V20.8441C31.7645 20.5898 32.3331 20.4625 32.7758 20.4625H35.6834V20.8441C35.6834 20.8441 36.1618 20.4625 36.556 20.4625H39.5999V20.6536H39.6028V23.5167ZM18.7423 24.3439H20.0069C20.9547 24.3439 21.8397 24.0892 21.8397 22.8168C21.8397 22.6502 21.8204 22.5036 21.7873 22.3718C21.5113 21.7059 20.7833 21.5444 20.1331 21.5444H16.7829L15.4553 23.0076L15.4233 23.041L15.1873 22.7819L14.0647 21.5443H9.95589V25.998H14.0014L15.3921 24.5344L15.4512 24.6028L15.4553 24.5981L16.6646 25.998H18.7423V25.2981V24.9163V24.5344V24.3439ZM26.3281 24.2802C26.4543 24.4706 26.5176 24.7255 26.5176 25.1074V25.998H25.4432V25.4255C25.4432 25.1706 25.4432 24.7255 25.2533 24.5344C25.1272 24.3439 24.874 24.3439 24.495 24.3439H23.3573V25.998H22.2827V21.4806H24.6846C25.19 21.4806 25.6324 21.4806 25.9491 21.6713C26.2649 21.8624 26.5176 22.1805 26.5176 22.6896C26.5176 23.3893 26.0753 23.771 25.7592 23.8985C26.0753 24.0252 26.2649 24.1529 26.3281 24.2802ZM28.2243 22.4346H30.6899V21.4805H27.15V25.998H30.6899V25.0437H28.2243V24.1528H30.6264V23.2618H28.2243V22.4346ZM33.3446 25.998H31.3217V25.0438H33.3446C33.5339 25.0438 33.6606 25.0438 33.7873 24.9164C33.8506 24.8526 33.9134 24.7256 33.9134 24.5982C33.9134 24.4707 33.8506 24.344 33.7873 24.2803C33.7239 24.2167 33.5973 24.153 33.4077 24.153C33.3243 24.1477 33.2395 24.1433 33.1543 24.1389C32.2062 24.0898 31.1953 24.0375 31.1953 22.7533C31.1953 22.117 31.5745 21.417 32.7124 21.417H34.7983V22.4985H32.8389C32.6493 22.4985 32.5227 22.4985 32.3962 22.5622C32.2701 22.626 32.2701 22.7533 32.2701 22.8804C32.2701 23.0714 32.3962 23.1351 32.5226 23.1982C32.6493 23.262 32.7756 23.262 32.9019 23.262H33.4709C34.0399 23.262 34.4191 23.3893 34.6719 23.6438C34.8616 23.8348 34.9881 24.153 34.9881 24.5982C34.9881 25.5523 34.4192 25.998 33.3446 25.998ZM37.4533 25.998C38.0856 25.998 38.5283 25.8072 38.7809 25.5523C39.0336 25.2981 39.1601 24.9801 39.1601 24.5982C39.1601 24.5158 39.1518 24.4413 39.1405 24.3699C39.0109 23.6887 38.4313 23.4277 38.2562 23.3639C38.065 23.2963 37.8561 23.262 37.5798 23.262H37.0739H37.0111C36.8845 23.262 36.7581 23.262 36.6318 23.1982C36.4419 23.1351 36.3786 23.0714 36.3786 22.8804C36.3786 22.7533 36.4419 22.626 36.5055 22.5622C36.6318 22.4985 36.7581 22.4985 36.9478 22.4985H37.0111H37.5166H38.9075V21.417H36.8213C36.7041 21.417 36.597 21.4261 36.4956 21.4402C35.6479 21.6024 35.3042 22.1487 35.3042 22.7534C35.3042 24.0375 36.3154 24.0898 37.2632 24.1389C37.3484 24.1433 37.4332 24.1477 37.5166 24.153C37.7063 24.153 37.8326 24.2167 37.8959 24.2803C37.9589 24.344 38.0223 24.4707 38.0223 24.5982C38.0223 24.7256 37.9589 24.8526 37.8959 24.9164C37.7696 25.0438 37.6429 25.0438 37.4532 25.0438H35.4309V25.998H37.4533Z" fill="white"/>
</g>
</svg>
