<svg width="39" height="25" viewBox="0 0 39 25" fill="none" xmlns="http://www.w3.org/2000/svg">
<path d="M24.7686 2.56238H14.1636V21.4948H24.7686V2.56238Z" fill="#FF5F00"/>
<path d="M14.875 12.0285C14.875 8.18505 16.6544 4.76868 19.5013 2.56228C17.4373 0.996441 14.875 0 12.028 0C5.40882 0 -0.000427246 5.40925 -0.000427246 12.0285C-0.000427246 18.6477 5.40882 24.0569 12.028 24.0569C14.8038 24.0569 17.4373 23.0605 19.5013 21.4947C16.6544 19.2883 14.875 15.8719 14.875 12.0285Z" fill="#EB001B"/>
<path d="M38.9318 12.0285C38.9318 18.6477 33.5226 24.0569 26.9034 24.0569C24.1276 24.0569 21.4941 23.0605 19.4301 21.4947C22.2059 19.2883 24.0564 15.8719 24.0564 12.0285C24.0564 8.18505 22.277 4.76868 19.4301 2.56228C21.4941 0.996441 24.1276 0 26.9034 0C33.5937 0 38.9318 5.40925 38.9318 12.0285ZM37.793 19.5018V19.1459H37.9354V19.0747H37.5083V19.1459H37.7218V19.5018H37.793ZM38.5759 19.5018V19.0036H38.4336L38.2912 19.3594L38.1489 19.0036H38.0065V19.5018H38.0777V19.1459L38.2201 19.4306H38.2912L38.4336 19.1459V19.5018H38.5759Z" fill="#F79E1B"/>
</svg>
