<svg width="62" height="16" viewBox="0 0 62 16" fill="none" xmlns="http://www.w3.org/2000/svg">
<path d="M59.8526 4.24686L58.4479 13.3929C58.4204 13.5702 58.5545 13.7299 58.7292 13.7299H60.1413C60.376 13.7299 60.5752 13.5558 60.6112 13.3187L61.9964 4.33751C62.0239 4.1603 61.8898 4 61.7151 4H60.1338C59.9942 4.00051 59.8741 4.10499 59.8526 4.24686Z" fill="#179BD7"/>
<path d="M57.9202 7.24026H56.2823C56.1417 7.24026 56.0221 7.34474 56.0011 7.48661L55.9285 7.95575L55.8134 7.78571C55.4586 7.2587 54.668 7.08252 53.8783 7.08252C52.0673 7.08252 50.521 8.48634 50.2198 10.4556C50.0637 11.4379 50.2853 12.3772 50.8298 13.0322C51.3302 13.6345 52.0438 13.8855 52.894 13.8855C54.3532 13.8855 55.1624 12.9252 55.1624 12.9252L55.0893 13.3913C55.0618 13.5695 55.1959 13.7293 55.3716 13.7293H56.8473C57.081 13.7293 57.2801 13.5551 57.3167 13.318L58.2029 7.57726C58.2299 7.40057 58.0958 7.24026 57.9202 7.24026ZM55.6358 10.5047C55.4787 11.463 54.7345 12.1063 53.7868 12.1063C53.3119 12.1063 52.9305 11.95 52.6863 11.654C52.4441 11.36 52.3531 10.9416 52.4291 10.4756C52.5777 9.5255 53.3324 8.86124 54.2656 8.86124C54.731 8.86124 55.1093 9.01949 55.3586 9.31808C55.6093 9.61974 55.7083 10.0407 55.6358 10.5047Z" fill="#179BD7"/>
<path d="M47.6911 4.00049H44.2683C44.0346 4.00049 43.8354 4.17462 43.7989 4.41124L42.4147 13.3929C42.3872 13.5701 42.5213 13.7299 42.696 13.7299H44.4524C44.6156 13.7299 44.7552 13.608 44.7807 13.4421L45.1735 10.8962C45.2095 10.659 45.4092 10.4849 45.6429 10.4849H46.7258C48.9807 10.4849 50.2813 9.36839 50.6215 7.15588C50.7752 6.18791 50.6275 5.42735 50.1847 4.89471C49.6988 4.30983 48.8366 4.00049 47.6911 4.00049ZM48.0859 7.28085C47.8993 8.53768 46.961 8.53768 46.0532 8.53768H45.5373L45.9001 6.19047C45.9216 6.0486 46.0407 5.94412 46.1814 5.94412H46.418C47.0356 5.94412 47.619 5.94412 47.9203 6.30468C48.0999 6.51978 48.1545 6.83937 48.0859 7.28085Z" fill="#179BD7"/>
<path d="M42.2382 7.24072H40.5913C40.4342 7.24072 40.2866 7.32062 40.1975 7.45429L37.9261 10.8786L36.9633 7.58796C36.9028 7.38208 36.7171 7.24072 36.5069 7.24072H34.8886C34.6919 7.24072 34.5553 7.43739 34.6179 7.62689L36.4319 13.0752L34.7265 15.5392C34.5923 15.7333 34.7275 16.0001 34.9591 16.0001H36.604C36.7601 16.0001 36.9063 15.9223 36.9948 15.7912L42.4724 7.6991C42.6035 7.50551 42.4689 7.24072 42.2382 7.24072Z" fill="#253B80"/>
<path d="M33.5102 7.24026H31.8713C31.7317 7.24026 31.6111 7.34474 31.5896 7.48661L31.5171 7.95575L31.4025 7.78571C31.0477 7.2587 30.2565 7.08252 29.4669 7.08252C27.6558 7.08252 26.1091 8.48634 25.8078 10.4556C25.6512 11.4379 25.8739 12.3772 26.4183 13.0322C26.9177 13.6345 27.6323 13.8855 28.4825 13.8855C29.9417 13.8855 30.7509 12.9252 30.7509 12.9252L30.6779 13.3913C30.6503 13.5695 30.7844 13.7293 30.9591 13.7293H32.4353C32.67 13.7293 32.8682 13.5551 32.9052 13.318L33.7909 7.57726C33.819 7.40057 33.6854 7.24026 33.5102 7.24026ZM31.2258 10.5047C31.0677 11.463 30.3246 12.1063 29.3768 12.1063C28.9009 12.1063 28.5206 11.95 28.2764 11.654C28.0342 11.36 27.9421 10.9416 28.0191 10.4756C28.1668 9.5255 28.9224 8.86124 29.8557 8.86124C30.3211 8.86124 30.6994 9.01949 30.9486 9.31808C31.1983 9.61974 31.2974 10.0407 31.2258 10.5047Z" fill="#253B80"/>
<path d="M23.28 4.00049H19.8576C19.6234 4.00049 19.4243 4.17462 19.3877 4.41124L18.0036 13.3929C17.9761 13.5701 18.1102 13.7299 18.2858 13.7299H19.9197C20.1539 13.7299 20.353 13.5558 20.3896 13.3187L20.7629 10.8962C20.7989 10.659 20.9986 10.4849 21.2323 10.4849H22.3157C24.57 10.4849 25.8711 9.36839 26.2109 7.15588C26.364 6.18791 26.2174 5.42735 25.7745 4.89471C25.2881 4.30983 24.4254 4.00049 23.28 4.00049ZM23.6748 7.28085C23.4876 8.53768 22.5494 8.53768 21.6421 8.53768H21.1257L21.488 6.19047C21.5095 6.0486 21.6296 5.94412 21.7697 5.94412H22.0064C22.6244 5.94412 23.2074 5.94412 23.5087 6.30468C23.6883 6.51978 23.7434 6.83937 23.6748 7.28085Z" fill="#253B80"/>
<path d="M3.69295 15.457L3.95878 13.6957L3.36663 13.6814H0.539062L2.50408 0.684574C2.51018 0.645339 2.53 0.608755 2.55897 0.582776C2.58795 0.556796 2.62505 0.54248 2.66368 0.54248H7.43136C9.01415 0.54248 10.1065 0.88605 10.6767 1.56418C10.9441 1.88229 11.1144 2.21473 11.1967 2.58057C11.2831 2.96443 11.2846 3.42306 11.2003 3.98242L11.1942 4.02324V4.38166L11.4615 4.53966C11.6867 4.66425 11.8656 4.80688 12.0028 4.97018C12.2316 5.24217 12.3795 5.58786 12.442 5.9977C12.5066 6.41921 12.4852 6.92078 12.3795 7.48863C12.2575 8.14183 12.0603 8.71074 11.7939 9.17625C11.549 9.60518 11.2369 9.96095 10.8663 10.2367C10.5126 10.4986 10.0922 10.6974 9.61697 10.8246C9.15647 10.9498 8.63142 11.0129 8.05553 11.0129H7.68449C7.41916 11.0129 7.16147 11.1125 6.95917 11.2912C6.75637 11.4736 6.62218 11.7228 6.58101 11.9953L6.55305 12.1539L6.0834 15.2582L6.06205 15.3722C6.05646 15.4082 6.0468 15.4262 6.03257 15.4384C6.01987 15.4496 6.00157 15.457 5.98378 15.457H3.69295Z" fill="#253B80"/>
<path d="M11.715 4.06543C11.7007 4.16034 11.6845 4.25736 11.6662 4.35704C11.0374 7.72434 8.88637 8.8876 6.13911 8.8876H4.74032C4.40435 8.8876 4.12124 9.14209 4.06889 9.48778L3.35272 14.2257L3.14991 15.5686C3.11586 15.7956 3.28359 16.0002 3.50317 16.0002H5.98409C6.27788 16.0002 6.52744 15.7775 6.57369 15.4753L6.59809 15.3438L7.0652 12.2517L7.09519 12.0821C7.14094 11.7788 7.39101 11.5561 7.6848 11.5561H8.05584C10.4595 11.5561 12.3412 10.5381 12.8911 7.59232C13.1209 6.36173 13.0019 5.3342 12.394 4.61154C12.21 4.39362 11.9818 4.21283 11.715 4.06543Z" fill="#179BD7"/>
<path d="M11.0567 3.79107C10.9607 3.76191 10.8615 3.7354 10.7599 3.71154C10.6577 3.68821 10.553 3.66754 10.4453 3.64951C10.0681 3.58589 9.65489 3.55566 9.21217 3.55566H5.47528C5.38328 3.55566 5.29586 3.5774 5.21758 3.61664C5.04528 3.70306 4.91719 3.87325 4.88619 4.08162L4.09123 9.33378L4.06836 9.48701C4.12071 9.14132 4.40383 8.88682 4.7398 8.88682H6.13859C8.88586 8.88682 11.0369 7.72304 11.6657 4.35627C11.6845 4.25659 11.7002 4.15956 11.7144 4.06466C11.5554 3.97664 11.383 3.90135 11.1975 3.8372C11.1518 3.82129 11.1045 3.80592 11.0567 3.79107Z" fill="#222D65"/>
<path d="M4.88662 4.08201C4.91762 3.87364 5.04571 3.70344 5.21802 3.61755C5.2968 3.57832 5.38372 3.55658 5.47572 3.55658H9.21261C9.65532 3.55658 10.0686 3.5868 10.4457 3.65042C10.5535 3.66845 10.6582 3.68913 10.7603 3.71246C10.862 3.73632 10.9611 3.76283 11.0572 3.79199C11.1049 3.80683 11.1522 3.82221 11.1985 3.83759C11.384 3.90174 11.5563 3.97756 11.7154 4.06504C11.9024 2.82066 11.7139 1.9734 11.0689 1.2062C10.3578 0.361596 9.07435 0 7.43209 0H2.66441C2.32894 0 2.04278 0.254496 1.99093 0.600716L0.00507714 13.7311C-0.0340606 13.9909 0.15807 14.2253 0.409161 14.2253H3.35262L4.09166 9.33416L4.88662 4.08201Z" fill="#253B80"/>
</svg>
