<svg width="56" height="18" viewBox="0 0 56 18" fill="none" xmlns="http://www.w3.org/2000/svg">
<path d="M36.1835 0C32.241 0 28.7155 2.04634 28.7155 5.82206C28.7155 10.1538 34.9657 10.4541 34.9657 12.6284C34.9657 13.5459 33.9147 14.3633 32.1242 14.3633C29.5774 14.3633 27.6756 13.2178 27.6756 13.2178L26.8582 17.0324C26.8582 17.0324 29.0491 18 31.9574 18C36.2725 18 39.6645 15.8536 39.6645 12.0111C39.6645 7.43466 33.3865 7.1455 33.3865 5.12141C33.3865 4.40408 34.2484 3.61446 36.0389 3.61446C38.0575 3.61446 39.7034 4.44856 39.7034 4.44856L40.4986 0.767377C40.4986 0.772938 38.7081 0 36.1835 0ZM0.094532 0.278035L0 0.834106C0 0.834106 1.65709 1.13994 3.15292 1.74606C5.07692 2.44115 5.21594 2.84708 5.53846 4.1038L9.06951 17.7164H13.8017L21.0973 0.278035H16.3763L11.6886 12.1335L9.77572 2.08526C9.60334 0.934198 8.71362 0.278035 7.62373 0.278035H0.094532ZM22.9991 0.278035L19.2956 17.7108H23.7998L27.4866 0.278035H22.9991ZM48.1168 0.278035C47.0324 0.278035 46.4541 0.861909 46.0315 1.87396L39.4365 17.7108H44.1575L45.0695 15.0695H50.8248L51.3809 17.7108H55.5514L51.9147 0.278035H48.1168ZM48.734 4.98795L50.1353 11.5329H46.3818L48.734 4.98795Z" fill="url(#paint0_linear)"/>
<defs>
<linearGradient id="paint0_linear" x1="0.000213799" y1="8.99931" x2="55.5499" y2="8.99931" gradientUnits="userSpaceOnUse">
<stop stop-color="#20225F"/>
<stop offset="0.2" stop-color="#1A1F61"/>
<stop offset="0.4102" stop-color="#172272"/>
<stop offset="0.5952" stop-color="#152682"/>
<stop offset="0.8021" stop-color="#12288E"/>
<stop offset="1" stop-color="#0E2C9A"/>
</linearGradient>
</defs>
</svg>
