<?xml version="1.0" encoding="UTF-8"?>
<svg width="30px" height="30px" viewBox="0 0 30 30" version="1.1" xmlns="http://www.w3.org/2000/svg" xmlns:xlink="http://www.w3.org/1999/xlink">
    <!-- Generator: Sketch 49.2 (51160) - http://www.bohemiancoding.com/sketch -->
    <title>right-arrow</title>
    <desc>Created with Sketch.</desc>
    <defs></defs>
    <g id="Page-1" stroke="none" stroke-width="1" fill="none" fill-rule="evenodd">
        <g id="PickMe-2.3" transform="translate(-70.000000, -1110.000000)" fill="#A1A1A1" fill-rule="nonzero">
            <g id="right-arrow" transform="translate(85.000000, 1125.000000) rotate(-180.000000) translate(-85.000000, -1125.000000) translate(70.000000, 1110.000000)">
                <path d="M15,0 C6.72888889,0 0,6.72888889 0,15 C0,23.2711111 6.72888889,30 15,30 C23.2711111,30 30,23.2711111 30,15 C30,6.72888889 23.2711111,0 15,0 Z M15,28.8888889 C7.34166667,28.8888889 1.11111111,22.6583333 1.11111111,15 C1.11111111,7.34166667 7.34166667,1.11111111 15,1.11111111 C22.6583333,1.11111111 28.8888889,7.34166667 28.8888889,15 C28.8888889,22.6583333 22.6583333,28.8888889 15,28.8888889 Z" id="Shape"></path>
                <path d="M12.7783333,7.94055556 C12.5611111,7.72333333 12.21,7.72333333 11.9927778,7.94055556 C11.7755556,8.15777778 11.7755556,8.50888889 11.9927778,8.72611111 L18.2666667,15 L11.9927778,21.2738889 C11.7755556,21.4911111 11.7755556,21.8422222 11.9927778,22.0594444 C12.1011111,22.1677778 12.2433333,22.2222222 12.3855556,22.2222222 C12.5277778,22.2222222 12.67,22.1677778 12.7783333,22.0594444 L19.1661111,15.6716667 C19.5366667,15.3011111 19.5366667,14.6988889 19.1661111,14.3283333 L12.7783333,7.94055556 Z" id="Shape"></path>
            </g>
        </g>
    </g>
</svg>