<?xml version="1.0" encoding="UTF-8"?>
<svg width="20px" height="20px" viewBox="0 0 20 20" version="1.1" xmlns="http://www.w3.org/2000/svg" xmlns:xlink="http://www.w3.org/1999/xlink">
    <!-- Generator: Sketch 49.2 (51160) - http://www.bohemiancoding.com/sketch -->
    <title>gps</title>
    <desc>Created with Sketch.</desc>
    <defs></defs>
    <g id="Page-1" stroke="none" stroke-width="1" fill="none" fill-rule="evenodd">
        <g id="PickMe-2.3" transform="translate(-1306.000000, -301.000000)" fill="#A0A0A0">
            <g id="Group-7" transform="translate(980.000000, 205.000000)">
                <g id="gps" transform="translate(326.000000, 96.000000)">
                    <path d="M10,12.5 C8.62140625,12.5 7.5,11.3785938 7.5,10 C7.5,8.62140625 8.62140625,7.5 10,7.5 C11.3785938,7.5 12.5,8.62140625 12.5,10 C12.5,11.3785938 11.3785938,12.5 10,12.5 Z M10,6.66667969 C8.16164063,6.66667969 6.66667969,8.16203125 6.66667969,10 C6.66667969,11.8379687 8.16164063,13.3333203 10,13.3333203 C11.8383984,13.3333203 13.3333203,11.8379687 13.3333203,10 C13.3333203,8.16203125 11.8383984,6.66667969 10,6.66667969 Z" id="Fill-1"></path>
                    <path d="M10,16.6666797 C6.3240625,16.6666797 3.33332031,13.6759375 3.33332031,10 C3.33332031,6.3240625 6.3240625,3.33332031 10,3.33332031 C13.6759375,3.33332031 16.6666797,6.3240625 16.6666797,10 C16.6666797,13.6759375 13.6759375,16.6666797 10,16.6666797 Z M19.5833203,9.58332031 L17.4789063,9.58332031 C17.2684375,5.7809375 14.2194141,2.7315625 10.4166797,2.52109375 L10.4166797,0.416679687 C10.4166797,0.186367188 10.2303125,0 10,0 C9.7696875,0 9.58332031,0.186367188 9.58332031,0.416679687 L9.58332031,2.52109375 C5.78058594,2.7315625 2.7315625,5.7809375 2.52109375,9.58332031 L0.416679688,9.58332031 C0.186367188,9.58332031 0,9.7696875 0,10 C0,10.2303125 0.186367188,10.4166797 0.416679688,10.4166797 L2.52109375,10.4166797 C2.7315625,14.2190625 5.78058594,17.2684375 9.58332031,17.4789062 L9.58332031,19.5833203 C9.58332031,19.8136328 9.7696875,20 10,20 C10.2303125,20 10.4166797,19.8136328 10.4166797,19.5833203 L10.4166797,17.4789062 C14.2194141,17.2684375 17.2684375,14.2190625 17.4789063,10.4166797 L19.5833203,10.4166797 C19.8136328,10.4166797 20,10.2303125 20,10 C20,9.7696875 19.8136328,9.58332031 19.5833203,9.58332031 Z" id="Fill-3"></path>
                </g>
            </g>
        </g>
    </g>
</svg>